<svg width="20.000000" height="20.000000" viewBox="0 0 20 20" fill="none" xmlns="http://www.w3.org/2000/svg" xmlns:xlink="http://www.w3.org/1999/xlink">
	<desc>
			Created with Pixso.
	</desc>
	<defs>
		<clipPath id="clip4_283">
			<rect id="IMAGE" width="20.000000" height="20.000000" fill="white" fill-opacity="0"/>
		</clipPath>
	</defs>
	<g clip-path="url(#clip4_283)">
		<path id="Path" d="M19.45 8.67L15.83 4.95C15.33 4.47 14.55 4.47 14.06 4.88C13.56 5.36 13.56 6.12 13.99 6.6L16.04 8.73L1.27 8.73C0.56 8.73 0 9.29 0 9.97C0 10.66 0.56 11.21 1.27 11.21L16.12 11.21L14.06 13.35C13.56 13.83 13.63 14.59 14.13 15.07C14.34 15.27 14.7 15.41 14.98 15.41C15.33 15.41 15.62 15.27 15.9 15.07L19.52 11.35C20.16 10.52 20.16 9.42 19.45 8.67Z" fill="#45525B" fill-opacity="1.000000" fill-rule="nonzero"/>
	</g>
</svg>
